%TF.GenerationSoftware,KiCad,Pcbnew,9.0.7*%
%TF.CreationDate,2026-05-05T21:29:03-03:00*%
%TF.ProjectId,EPS_KiCad_Design,4550535f-4b69-4436-9164-5f4465736967,rev?*%
%TF.SameCoordinates,Original*%
%TF.FileFunction,Copper,L3,Inr*%
%TF.FilePolarity,Positive*%
%FSLAX46Y46*%
G04 Gerber Fmt 4.6, Leading zero omitted, Abs format (unit mm)*
G04 Created by KiCad (PCBNEW 9.0.7) date 2026-05-05 21:29:03*
%MOMM*%
%LPD*%
G01*
G04 APERTURE LIST*
%TA.AperFunction,ComponentPad*%
%ADD10C,0.800000*%
%TD*%
%TA.AperFunction,ComponentPad*%
%ADD11C,6.400000*%
%TD*%
%TA.AperFunction,ComponentPad*%
%ADD12R,1.300000X1.300000*%
%TD*%
%TA.AperFunction,ComponentPad*%
%ADD13C,1.300000*%
%TD*%
%TA.AperFunction,ComponentPad*%
%ADD14C,1.700000*%
%TD*%
%TA.AperFunction,ComponentPad*%
%ADD15R,1.700000X1.700000*%
%TD*%
%TA.AperFunction,ViaPad*%
%ADD16C,0.700000*%
%TD*%
%TA.AperFunction,Conductor*%
%ADD17C,0.600000*%
%TD*%
%TA.AperFunction,Conductor*%
%ADD18C,0.200000*%
%TD*%
%TA.AperFunction,Conductor*%
%ADD19C,0.120000*%
%TD*%
G04 APERTURE END LIST*
D10*
X102600000Y-57900000D03*
X103302944Y-56202944D03*
X103302944Y-59597056D03*
X105000000Y-55500000D03*
D11*
X105000000Y-57900000D03*
D10*
X105000000Y-60300000D03*
X106697056Y-56202944D03*
X106697056Y-59597056D03*
X107400000Y-57900000D03*
D12*
X110650000Y-93250000D03*
D13*
X110650000Y-91250000D03*
X110650000Y-89250000D03*
X110650000Y-87250000D03*
D12*
X107530000Y-130710000D03*
D13*
X107530000Y-128710000D03*
X107530000Y-126710000D03*
X107530000Y-124710000D03*
D10*
X182600000Y-137900000D03*
X183302944Y-136202944D03*
X183302944Y-139597056D03*
X185000000Y-135500000D03*
D11*
X185000000Y-137900000D03*
D10*
X185000000Y-140300000D03*
X186697056Y-136202944D03*
X186697056Y-139597056D03*
X187400000Y-137900000D03*
D12*
X169960000Y-105770000D03*
D13*
X172460000Y-102570000D03*
X174960000Y-105770000D03*
D12*
X110675000Y-105750000D03*
D13*
X110675000Y-103750000D03*
X110675000Y-101750000D03*
X110675000Y-99750000D03*
D14*
X120860000Y-61040000D03*
D15*
X120860000Y-58500000D03*
D14*
X123400000Y-61040000D03*
X123400000Y-58500000D03*
X125940000Y-61040000D03*
X125940000Y-58500000D03*
X128480000Y-61040000D03*
X128480000Y-58500000D03*
X131020000Y-61040000D03*
X131020000Y-58500000D03*
X133560000Y-61040000D03*
X133560000Y-58500000D03*
X136100000Y-61040000D03*
X136100000Y-58500000D03*
X138640000Y-61040000D03*
X138640000Y-58500000D03*
X141180000Y-61040000D03*
X141180000Y-58500000D03*
X143720000Y-61040000D03*
X143720000Y-58500000D03*
X146260000Y-61040000D03*
X146260000Y-58500000D03*
X148800000Y-61040000D03*
X148800000Y-58500000D03*
X151340000Y-61040000D03*
X151340000Y-58500000D03*
X153880000Y-61040000D03*
X153880000Y-58500000D03*
X156420000Y-61040000D03*
X156420000Y-58500000D03*
X158960000Y-61040000D03*
X158960000Y-58500000D03*
X161500000Y-61040000D03*
X161500000Y-58500000D03*
X164040000Y-61040000D03*
X164040000Y-58500000D03*
X166580000Y-61040000D03*
X166580000Y-58500000D03*
X169120000Y-61040000D03*
X169120000Y-58500000D03*
D12*
X142950000Y-132430000D03*
D13*
X140950000Y-132430000D03*
X138950000Y-132430000D03*
X136950000Y-132430000D03*
D10*
X182600000Y-57900000D03*
X183302944Y-56202944D03*
X183302944Y-59597056D03*
X185000000Y-55500000D03*
D11*
X185000000Y-57900000D03*
D10*
X185000000Y-60300000D03*
X186697056Y-56202944D03*
X186697056Y-59597056D03*
X187400000Y-57900000D03*
D12*
X107675000Y-118100000D03*
D13*
X107675000Y-116100000D03*
X107675000Y-114100000D03*
X107675000Y-112100000D03*
D10*
X102600000Y-137900000D03*
X103302944Y-136202944D03*
X103302944Y-139597056D03*
X105000000Y-135500000D03*
D11*
X105000000Y-137900000D03*
D10*
X105000000Y-140300000D03*
X106697056Y-136202944D03*
X106697056Y-139597056D03*
X107400000Y-137900000D03*
D12*
X107625000Y-80950000D03*
D13*
X107625000Y-78950000D03*
X107625000Y-76950000D03*
X107625000Y-74950000D03*
D16*
X159640000Y-116960000D03*
X146975000Y-120550000D03*
X165199999Y-79800000D03*
X114550000Y-110125000D03*
X129350000Y-88575000D03*
X158510000Y-95250000D03*
X171627769Y-128631142D03*
X144975000Y-110550000D03*
X159499999Y-87600000D03*
X116450000Y-111125000D03*
X185700000Y-118203368D03*
X165199999Y-81300000D03*
X146975000Y-112550000D03*
X185090000Y-127980000D03*
X147250000Y-95100000D03*
X157499999Y-87300000D03*
X140165000Y-88208750D03*
X144975000Y-120550000D03*
X101000000Y-134000000D03*
X138861864Y-118928947D03*
X128450000Y-86275000D03*
X189000000Y-104000000D03*
X146665000Y-87608750D03*
X159499999Y-88600000D03*
X146600000Y-81160000D03*
X140534336Y-83400001D03*
X127550000Y-88575000D03*
X119500000Y-78500000D03*
X187000000Y-141700000D03*
X129350000Y-85775000D03*
X122900000Y-117125000D03*
X136501415Y-95200000D03*
X122000000Y-54000000D03*
X144975000Y-128550000D03*
X132950000Y-106050000D03*
X112650000Y-111125000D03*
X157000000Y-54000000D03*
X146665000Y-88608750D03*
X127550000Y-85775000D03*
X146570000Y-78310000D03*
X146975000Y-118550000D03*
X133672575Y-140576585D03*
X130200000Y-121075000D03*
X143865000Y-97208750D03*
X189000000Y-94000000D03*
X124450000Y-86275000D03*
X113475000Y-126350000D03*
X160399999Y-88100000D03*
X129450000Y-78200000D03*
X135689835Y-100820084D03*
X164299999Y-87600000D03*
X162499999Y-87600000D03*
X101000000Y-54000000D03*
X120700000Y-117125000D03*
X132000000Y-141700000D03*
X128450000Y-89075000D03*
X121676691Y-141692426D03*
X111675000Y-125450000D03*
X144975000Y-124550000D03*
X169960000Y-107200000D03*
X187657676Y-78331182D03*
X152995279Y-96051663D03*
X113475000Y-125450000D03*
X134637500Y-77265000D03*
X120700000Y-118125000D03*
X146975000Y-108550000D03*
X153499999Y-77900000D03*
X132050000Y-105600000D03*
X146975000Y-110550000D03*
X127236453Y-137485540D03*
X181141179Y-110700000D03*
X116450000Y-110125000D03*
X146570000Y-79850000D03*
X114375000Y-125900000D03*
X114425003Y-134150000D03*
X140975000Y-106550000D03*
X122900000Y-118125000D03*
X121300000Y-74950000D03*
X104930000Y-68790000D03*
X142565000Y-88108750D03*
X115450000Y-110625000D03*
X146975000Y-130550000D03*
X144975000Y-130550000D03*
X123550000Y-85775000D03*
X141665000Y-87608750D03*
X161299999Y-87300000D03*
X146925000Y-106545000D03*
X121800000Y-117125000D03*
X142975000Y-128550000D03*
X154500000Y-77250000D03*
X126050000Y-97475000D03*
X189000000Y-54000000D03*
X164299999Y-88600000D03*
X189000000Y-84000000D03*
X142975000Y-110550000D03*
X177000000Y-141700000D03*
X125350000Y-86775000D03*
X177061825Y-121757415D03*
X146975000Y-124550000D03*
X160799999Y-97800000D03*
X181845125Y-117096563D03*
X184683381Y-120155322D03*
X164199999Y-79800000D03*
X152500000Y-78300000D03*
X146975000Y-122550000D03*
X181900000Y-118530053D03*
X152522907Y-99645148D03*
X140665000Y-87308750D03*
X184980000Y-68740000D03*
X101000000Y-124000000D03*
X127550000Y-86775000D03*
X129500000Y-80000000D03*
X125908693Y-76180552D03*
X142965000Y-96708750D03*
X134650000Y-99618219D03*
X167000000Y-141700000D03*
X144975000Y-118550000D03*
X175450000Y-114209620D03*
X112650000Y-110125000D03*
X189000000Y-74000000D03*
X129350000Y-89575000D03*
X125350000Y-85775000D03*
X119500000Y-77500000D03*
X144975000Y-132550000D03*
X139665000Y-87308750D03*
X117500000Y-77500000D03*
X131773706Y-138721000D03*
X144747757Y-114502243D03*
X125350000Y-89575000D03*
X120374178Y-141107220D03*
X126050000Y-98475000D03*
X179360000Y-124060000D03*
X137277298Y-100284915D03*
X117025000Y-139425000D03*
X136637500Y-78265000D03*
X164899999Y-95350000D03*
X114550000Y-111125000D03*
X171674410Y-131747060D03*
X141665000Y-88608750D03*
X158499999Y-87300000D03*
X189000000Y-114000000D03*
X140975000Y-130550000D03*
X132050000Y-106500000D03*
X134637500Y-78265000D03*
X168954605Y-116845395D03*
X142975000Y-130550000D03*
X144765000Y-97708750D03*
X144975000Y-126550000D03*
X164199999Y-78300000D03*
X162720000Y-134660000D03*
X163399999Y-88100000D03*
X172950000Y-117700000D03*
X176119259Y-130344054D03*
X113550000Y-110625000D03*
X138975000Y-106550000D03*
X101000000Y-74000000D03*
X147680000Y-79850000D03*
X144865000Y-87608750D03*
X129350000Y-86775000D03*
X146975000Y-126550000D03*
X157406250Y-124860000D03*
X189000000Y-134000000D03*
X121400000Y-138600000D03*
X121800000Y-118125000D03*
X154550000Y-78400000D03*
X141881605Y-79999000D03*
X117500000Y-78500000D03*
X185512670Y-78161615D03*
X157499999Y-89100000D03*
X130450000Y-78200000D03*
X124655991Y-78323238D03*
X167000000Y-54000000D03*
X165199999Y-78300000D03*
X112000000Y-54000000D03*
X112000000Y-141700000D03*
X101000000Y-84000000D03*
X127850000Y-98475000D03*
X112575000Y-125900000D03*
X123550000Y-89575000D03*
X177000000Y-54000000D03*
X124450000Y-89075000D03*
X136637500Y-77265000D03*
X143465000Y-87350000D03*
X172540080Y-119920795D03*
X119798250Y-122893859D03*
X177277174Y-112890877D03*
X127550000Y-89575000D03*
X159980000Y-114070000D03*
X167340000Y-127090000D03*
X129500000Y-81500000D03*
X119815394Y-139396183D03*
X127278114Y-138626692D03*
X177190000Y-118420000D03*
X169610000Y-130340000D03*
X146975000Y-128550000D03*
X124058756Y-95627996D03*
X147720000Y-81180000D03*
X130675000Y-120175000D03*
X135637500Y-77765000D03*
X162599999Y-96800000D03*
X132000000Y-54000000D03*
X180085877Y-112947715D03*
X172320000Y-86280000D03*
X189000000Y-124000000D03*
X152500000Y-77250000D03*
X123550000Y-88575000D03*
X173584620Y-121884620D03*
X119925000Y-129220000D03*
X142965000Y-97708750D03*
X133050000Y-114490000D03*
X118500000Y-78000000D03*
X144975000Y-122550000D03*
X129850000Y-97000000D03*
X145765000Y-88108750D03*
X157306250Y-120760000D03*
X124450000Y-109625000D03*
X162499999Y-88600000D03*
X170967378Y-96723998D03*
X111675000Y-126350000D03*
X143465000Y-88608750D03*
X176654079Y-126089013D03*
X146975000Y-114550000D03*
X171950000Y-98250000D03*
X144765000Y-96708750D03*
X140790000Y-95210000D03*
X144975000Y-108550000D03*
X126563397Y-140587473D03*
X110975000Y-139400000D03*
X102000000Y-141700000D03*
X160799999Y-96800000D03*
X146975000Y-132550000D03*
X135674261Y-137412500D03*
X119150000Y-116375000D03*
X127850000Y-97475000D03*
X139665000Y-89108750D03*
X157999999Y-88200000D03*
X131050000Y-121075000D03*
X164199999Y-81300000D03*
X130500000Y-80000000D03*
X144975000Y-106550000D03*
X130500000Y-81500000D03*
X144865000Y-88608750D03*
X125350000Y-88575000D03*
X157000000Y-141700000D03*
X189000000Y-64000000D03*
X161299999Y-88600000D03*
X161699999Y-97300000D03*
X101000000Y-64000000D03*
X162599999Y-97800000D03*
X126950000Y-97975000D03*
X172230255Y-126905324D03*
X147683915Y-78310001D03*
X171800000Y-121000000D03*
X101000000Y-114000000D03*
X123550000Y-86775000D03*
X168850000Y-95250000D03*
X142975000Y-106550000D03*
X169950000Y-117150000D03*
X177362598Y-117536702D03*
X133330000Y-113560000D03*
X177536751Y-125913249D03*
X170790000Y-128960000D03*
X143450000Y-86300000D03*
X160950000Y-86150000D03*
X122100000Y-75600000D03*
X137350000Y-94350000D03*
X140674220Y-94317475D03*
X148050000Y-95750000D03*
X131000000Y-97000000D03*
X123900000Y-94550000D03*
X120100000Y-140250000D03*
X118700000Y-122900000D03*
X165750000Y-95850000D03*
X158341707Y-94302736D03*
X171733240Y-121897520D03*
X176950000Y-122811500D03*
X177100000Y-120800000D03*
X178300000Y-124150000D03*
X172175000Y-132495000D03*
X180947197Y-117157632D03*
X175219620Y-130369620D03*
X181890000Y-119430000D03*
X173430760Y-120050000D03*
X141551000Y-83700000D03*
X173738390Y-122771389D03*
X124478686Y-79205602D03*
X138814649Y-117869996D03*
X173570831Y-118351593D03*
X172000000Y-117700000D03*
X143580000Y-114480000D03*
X185540001Y-117155512D03*
X186610000Y-78170000D03*
X121250000Y-140900000D03*
X120875000Y-128300000D03*
X171830000Y-126060000D03*
X142940380Y-80050000D03*
X125942972Y-77240000D03*
X172894630Y-126298191D03*
X184617376Y-119097376D03*
X184620000Y-77590000D03*
X131130000Y-139350000D03*
X171850000Y-96900000D03*
X126562037Y-138081498D03*
X136749783Y-101014115D03*
X174150000Y-114206052D03*
X180252738Y-110843786D03*
X153350000Y-100000000D03*
X153893053Y-95988368D03*
X138070000Y-99820000D03*
X180130059Y-112048797D03*
X127966769Y-138047244D03*
X169463602Y-95913602D03*
X177190000Y-111995106D03*
X175550000Y-122060555D03*
X126290000Y-139730000D03*
X172682950Y-127931165D03*
X134693468Y-100517171D03*
X153050000Y-96950000D03*
X136570000Y-137500000D03*
X134160000Y-139820000D03*
X170503033Y-95953033D03*
X113525000Y-134150000D03*
X119650000Y-117124656D03*
D17*
X133800000Y-99103496D02*
X138201000Y-94702496D01*
X139200000Y-86300000D02*
X143450000Y-86300000D01*
X133330000Y-113560000D02*
X133330000Y-112820000D01*
X133330000Y-112820000D02*
X133800000Y-112350000D01*
X138201000Y-94702496D02*
X138201000Y-87299000D01*
X133800000Y-112350000D02*
X133800000Y-99103496D01*
X138201000Y-87299000D02*
X139200000Y-86300000D01*
X122100000Y-90800000D02*
X125650000Y-94350000D01*
X125650000Y-94350000D02*
X137350000Y-94350000D01*
X146567214Y-73700000D02*
X159017214Y-86150000D01*
X122100000Y-75600000D02*
X122100000Y-90800000D01*
X124000000Y-73700000D02*
X146567214Y-73700000D01*
X159017214Y-86150000D02*
X160950000Y-86150000D01*
X122100000Y-75600000D02*
X124000000Y-73700000D01*
D18*
X142250000Y-95750000D02*
X148050000Y-95750000D01*
X140823470Y-94323470D02*
X142250000Y-95750000D01*
X140680215Y-94323470D02*
X140823470Y-94323470D01*
X140674220Y-94317475D02*
X140680215Y-94323470D01*
X130800000Y-96800000D02*
X130800000Y-96750000D01*
X131000000Y-97000000D02*
X130800000Y-96800000D01*
X130150000Y-96100000D02*
X125450000Y-96100000D01*
X130800000Y-96750000D02*
X130150000Y-96100000D01*
X125450000Y-96100000D02*
X123900000Y-94550000D01*
X119524943Y-140250000D02*
X120100000Y-140250000D01*
X118750000Y-122950000D02*
X118750000Y-139475057D01*
X118750000Y-139475057D02*
X119524943Y-140250000D01*
X118700000Y-122900000D02*
X118750000Y-122950000D01*
X160230000Y-96000000D02*
X165600000Y-96000000D01*
X165600000Y-96000000D02*
X165750000Y-95850000D01*
X158341707Y-94302736D02*
X158532736Y-94302736D01*
X158532736Y-94302736D02*
X160230000Y-96000000D01*
D19*
X160080000Y-60420000D02*
X159530000Y-59870000D01*
X177098098Y-122811500D02*
X178769000Y-121140598D01*
X140010000Y-59870000D02*
X138640000Y-58500000D01*
X178769000Y-80049000D02*
X160080000Y-61360000D01*
X159530000Y-59870000D02*
X140010000Y-59870000D01*
X160080000Y-61360000D02*
X160080000Y-60420000D01*
X178769000Y-121140598D02*
X178769000Y-80049000D01*
X176950000Y-122811500D02*
X177098098Y-122811500D01*
D18*
X178248000Y-80265100D02*
X160341450Y-62358550D01*
X177100000Y-120800000D02*
X178248000Y-119652000D01*
X160341450Y-62358550D02*
X157738550Y-62358550D01*
X178248000Y-119652000D02*
X178248000Y-80265100D01*
X157738550Y-62358550D02*
X156420000Y-61040000D01*
D19*
X138640000Y-61040000D02*
X138640000Y-60297466D01*
X162149000Y-57389000D02*
X162660000Y-57900000D01*
X138179808Y-57389000D02*
X162149000Y-57389000D01*
X138640000Y-61040000D02*
X137940000Y-61040000D01*
X138640000Y-61040000D02*
X137529000Y-59929000D01*
X137529000Y-58039808D02*
X138179808Y-57389000D01*
X137529000Y-59929000D02*
X137529000Y-58039808D01*
X179250000Y-123200000D02*
X179250000Y-79840000D01*
X178300000Y-124150000D02*
X179250000Y-123200000D01*
X179250000Y-79840000D02*
X162660000Y-63250000D01*
X162660000Y-57900000D02*
X162660000Y-63250000D01*
D18*
X180957632Y-117157632D02*
X180950000Y-117165264D01*
X180950000Y-123420000D02*
X172175000Y-132195000D01*
X180950000Y-117165264D02*
X180950000Y-123420000D01*
X172175000Y-132195000D02*
X172175000Y-132495000D01*
X180947197Y-117157632D02*
X180957632Y-117157632D01*
X175184265Y-130334265D02*
X175219620Y-130369620D01*
X181890000Y-119430000D02*
X181670000Y-119650000D01*
X175184265Y-130165735D02*
X175184265Y-130334265D01*
X181670000Y-123680000D02*
X175184265Y-130165735D01*
X181670000Y-119650000D02*
X181670000Y-123680000D01*
D19*
X149030000Y-84010000D02*
X149030000Y-99210000D01*
X172002000Y-115582000D02*
X174200000Y-117780000D01*
X156210000Y-106390000D02*
X156210000Y-106390473D01*
X156210000Y-106390473D02*
X165401527Y-115582000D01*
X165401527Y-115582000D02*
X172002000Y-115582000D01*
X148720000Y-83700000D02*
X149030000Y-84010000D01*
X174200000Y-117780000D02*
X174200000Y-119280760D01*
X149030000Y-99210000D02*
X156210000Y-106390000D01*
X174200000Y-119280760D02*
X173430760Y-120050000D01*
X141551000Y-83700000D02*
X148720000Y-83700000D01*
X155060000Y-103870000D02*
X156280000Y-105090000D01*
X165800000Y-114620000D02*
X172550000Y-114620000D01*
X150400000Y-99220000D02*
X155050000Y-103870000D01*
X174195620Y-122314159D02*
X173738390Y-122771389D01*
X148862623Y-79080000D02*
X150400000Y-80617377D01*
X174195620Y-121024380D02*
X174195620Y-122314159D01*
X175610000Y-117680000D02*
X175610000Y-119610000D01*
X124478686Y-79205602D02*
X124585474Y-79205602D01*
X156280000Y-105090000D02*
X156280000Y-105100000D01*
X155050000Y-103870000D02*
X155060000Y-103870000D01*
X124585474Y-79205602D02*
X124711076Y-79080000D01*
X156280000Y-105100000D02*
X165800000Y-114620000D01*
X124711076Y-79080000D02*
X148862623Y-79080000D01*
X150400000Y-80617377D02*
X150400000Y-99220000D01*
X172550000Y-114620000D02*
X175610000Y-117680000D01*
X175610000Y-119610000D02*
X174195620Y-121024380D01*
X171214915Y-117779000D02*
X171787508Y-118351593D01*
X138905645Y-117779000D02*
X171214915Y-117779000D01*
X138814649Y-117869996D02*
X138905645Y-117779000D01*
X171787508Y-118351593D02*
X173570831Y-118351593D01*
X145174395Y-116074395D02*
X170374395Y-116074395D01*
X143580000Y-114480000D02*
X145174395Y-116074395D01*
X170374395Y-116074395D02*
X172000000Y-117700000D01*
X186610000Y-78170000D02*
X186620000Y-78180000D01*
X186620000Y-78180000D02*
X186620000Y-116075513D01*
X186620000Y-116075513D02*
X185540001Y-117155512D01*
D18*
X121250000Y-140900000D02*
X120750000Y-140400000D01*
X120750000Y-128425000D02*
X120875000Y-128300000D01*
X120750000Y-140400000D02*
X120750000Y-128425000D01*
D19*
X172310000Y-115100000D02*
X174850000Y-117640000D01*
X165600764Y-115101000D02*
X165999236Y-115101000D01*
X171830000Y-122700000D02*
X171830000Y-126060000D01*
X149590000Y-99090237D02*
X165600764Y-115101000D01*
X144880380Y-81990000D02*
X149340000Y-81990000D01*
X142940380Y-80050000D02*
X144880380Y-81990000D01*
X165999236Y-115101000D02*
X166000236Y-115100000D01*
X166000236Y-115100000D02*
X172310000Y-115100000D01*
X149590000Y-82240000D02*
X149590000Y-99090237D01*
X149340000Y-81990000D02*
X149590000Y-82240000D01*
X174850000Y-117640000D02*
X174850000Y-119680000D01*
X174850000Y-119680000D02*
X171830000Y-122700000D01*
X166000532Y-114140000D02*
X150871000Y-99010468D01*
X126688972Y-76494000D02*
X125942972Y-77240000D01*
X146956859Y-76494000D02*
X126688972Y-76494000D01*
X172920000Y-114140000D02*
X166000532Y-114140000D01*
X176150000Y-117370000D02*
X172920000Y-114140000D01*
X176150000Y-119900000D02*
X176150000Y-117370000D01*
X150871000Y-80408141D02*
X146956859Y-76494000D01*
X174650000Y-122426879D02*
X174651000Y-122425879D01*
X174650000Y-124700000D02*
X174650000Y-122426879D01*
X173051809Y-126298191D02*
X174650000Y-124700000D01*
X150871000Y-99010468D02*
X150871000Y-80408141D01*
X174651000Y-121399000D02*
X176150000Y-119900000D01*
X174651000Y-122425879D02*
X174651000Y-121399000D01*
X172894630Y-126298191D02*
X173051809Y-126298191D01*
X184620000Y-119094752D02*
X184617376Y-119097376D01*
X184620000Y-77590000D02*
X184620000Y-119094752D01*
X181870237Y-111920000D02*
X183151000Y-113200763D01*
X126562037Y-136628199D02*
X126562037Y-138081498D01*
X153350000Y-100000000D02*
X168781735Y-100000000D01*
X171850000Y-96931735D02*
X171850000Y-96900000D01*
X140372000Y-138592000D02*
X140370000Y-138590000D01*
X135001000Y-102129000D02*
X135001000Y-135039237D01*
X183151000Y-113200763D02*
X183151000Y-131349473D01*
X127069236Y-136121000D02*
X126562037Y-136628199D01*
X183151000Y-131349473D02*
X175908473Y-138592000D01*
X174150000Y-114206052D02*
X174150000Y-110880000D01*
X171850000Y-97000000D02*
X171850000Y-96900000D01*
X135700000Y-101430000D02*
X135001000Y-102129000D01*
X136749783Y-101014115D02*
X136333898Y-101430000D01*
X133919236Y-136121000D02*
X127069236Y-136121000D01*
X168781735Y-100000000D02*
X171850000Y-96931735D01*
X174150000Y-110880000D02*
X176100000Y-108930000D01*
X180719952Y-111311000D02*
X181251000Y-111311000D01*
X135001000Y-135039237D02*
X133919236Y-136121000D01*
X133980000Y-138590000D02*
X133220000Y-139350000D01*
X180252738Y-110843786D02*
X180719952Y-111311000D01*
X176100000Y-108930000D02*
X176100000Y-101250000D01*
X181251000Y-111311000D02*
X181860000Y-111920000D01*
X176100000Y-101250000D02*
X171850000Y-97000000D01*
X175908473Y-138592000D02*
X140372000Y-138592000D01*
X136333898Y-101430000D02*
X135700000Y-101430000D01*
X133220000Y-139350000D02*
X131130000Y-139350000D01*
X181860000Y-111920000D02*
X181870237Y-111920000D01*
X140370000Y-138590000D02*
X133980000Y-138590000D01*
X177190000Y-111995106D02*
X177200000Y-111985106D01*
X127970000Y-136930000D02*
X128298000Y-136602000D01*
X154830000Y-99020000D02*
X168401263Y-99020000D01*
X170035171Y-95342033D02*
X171832033Y-95342033D01*
X135801981Y-101781981D02*
X135482000Y-102101962D01*
X127960000Y-136930000D02*
X127970000Y-136930000D01*
X180150000Y-112050000D02*
X180131262Y-112050000D01*
X135482000Y-128912000D02*
X135482000Y-102950000D01*
X175709237Y-138111000D02*
X128030525Y-138111000D01*
X182670000Y-131150237D02*
X175709237Y-138111000D01*
X127966769Y-138047244D02*
X127960000Y-138040475D01*
X138070000Y-100557983D02*
X136846002Y-101781981D01*
X134118474Y-136602000D02*
X135500000Y-135220474D01*
X135500000Y-135220474D02*
X135500000Y-129590000D01*
X168401263Y-99020000D02*
X169463602Y-97957661D01*
X177060000Y-100570000D02*
X177060000Y-111865106D01*
X135500000Y-128930000D02*
X135482000Y-128912000D01*
X136846002Y-101781981D02*
X135801981Y-101781981D01*
X180150000Y-112050000D02*
X181320000Y-112050000D01*
X153893053Y-98083053D02*
X154830000Y-99020000D01*
X129170000Y-136602000D02*
X134118474Y-136602000D01*
X135482000Y-102330000D02*
X135482000Y-102998000D01*
X177060000Y-111865106D02*
X177190000Y-111995106D01*
X180131262Y-112050000D02*
X180130059Y-112048797D01*
X182670000Y-113400000D02*
X182670000Y-131150237D01*
X135482000Y-102101962D02*
X135482000Y-102330000D01*
X138070000Y-99820000D02*
X138070000Y-100557983D01*
X181320000Y-112050000D02*
X182670000Y-113400000D01*
X135500000Y-129590000D02*
X135500000Y-128930000D01*
X128298000Y-136602000D02*
X129170000Y-136602000D01*
X153893053Y-95988368D02*
X153893053Y-98083053D01*
X169463602Y-95913602D02*
X170035171Y-95342033D01*
X128030525Y-138111000D02*
X127966769Y-138047244D01*
X127960000Y-138040475D02*
X127960000Y-136930000D01*
X169463602Y-97957661D02*
X169463602Y-95913602D01*
X171832033Y-95342033D02*
X177060000Y-100570000D01*
X168601499Y-99500000D02*
X170196378Y-97905121D01*
X134520000Y-134840000D02*
X134520000Y-100690639D01*
X176580000Y-100765915D02*
X176580000Y-120330000D01*
X167359194Y-127931165D02*
X172682950Y-127931165D01*
X134020000Y-139960000D02*
X126520000Y-139960000D01*
X154010000Y-99500000D02*
X168601499Y-99500000D01*
X171767118Y-95953033D02*
X176580000Y-100765915D01*
X134160000Y-139820000D02*
X134020000Y-139960000D01*
X157790359Y-137500000D02*
X167359194Y-127931165D01*
X175550000Y-121360000D02*
X175550000Y-122060555D01*
X153050000Y-96950000D02*
X153050000Y-98540000D01*
X170503033Y-95953033D02*
X171767118Y-95953033D01*
X136570000Y-137500000D02*
X157790359Y-137500000D01*
X134520000Y-100690639D02*
X134693468Y-100517171D01*
X170196378Y-96404639D02*
X170503033Y-96097984D01*
X125951037Y-136558963D02*
X126870000Y-135640000D01*
X126870000Y-135640000D02*
X133720000Y-135640000D01*
X153050000Y-98540000D02*
X154010000Y-99500000D01*
X170196378Y-97905121D02*
X170196378Y-96404639D01*
X126520000Y-139960000D02*
X126290000Y-139730000D01*
X126290000Y-139730000D02*
X125951037Y-139391037D01*
X176580000Y-120330000D02*
X175550000Y-121360000D01*
X133720000Y-135640000D02*
X134520000Y-134840000D01*
X125951037Y-139391037D02*
X125951037Y-136558963D01*
X170503033Y-96097984D02*
X170503033Y-95953033D01*
D18*
X119650000Y-117124656D02*
X119561576Y-117124656D01*
X117850000Y-126950000D02*
X113525000Y-131275000D01*
X113525000Y-131275000D02*
X113525000Y-134150000D01*
X117850000Y-118836232D02*
X117850000Y-126950000D01*
X119561576Y-117124656D02*
X117850000Y-118836232D01*
M02*
