%TF.GenerationSoftware,KiCad,Pcbnew,9.0.7*%
%TF.CreationDate,2026-05-02T21:02:55-03:00*%
%TF.ProjectId,EPS_KiCad_Design,4550535f-4b69-4436-9164-5f4465736967,rev?*%
%TF.SameCoordinates,Original*%
%TF.FileFunction,Paste,Top*%
%TF.FilePolarity,Positive*%
%FSLAX46Y46*%
G04 Gerber Fmt 4.6, Leading zero omitted, Abs format (unit mm)*
G04 Created by KiCad (PCBNEW 9.0.7) date 2026-05-02 21:02:55*
%MOMM*%
%LPD*%
G01*
G04 APERTURE LIST*
G04 Aperture macros list*
%AMRoundRect*
0 Rectangle with rounded corners*
0 $1 Rounding radius*
0 $2 $3 $4 $5 $6 $7 $8 $9 X,Y pos of 4 corners*
0 Add a 4 corners polygon primitive as box body*
4,1,4,$2,$3,$4,$5,$6,$7,$8,$9,$2,$3,0*
0 Add four circle primitives for the rounded corners*
1,1,$1+$1,$2,$3*
1,1,$1+$1,$4,$5*
1,1,$1+$1,$6,$7*
1,1,$1+$1,$8,$9*
0 Add four rect primitives between the rounded corners*
20,1,$1+$1,$2,$3,$4,$5,0*
20,1,$1+$1,$4,$5,$6,$7,0*
20,1,$1+$1,$6,$7,$8,$9,0*
20,1,$1+$1,$8,$9,$2,$3,0*%
G04 Aperture macros list end*
%ADD10R,0.500000X1.075000*%
%ADD11RoundRect,0.250000X-0.450000X0.350000X-0.450000X-0.350000X0.450000X-0.350000X0.450000X0.350000X0*%
%ADD12RoundRect,0.250000X-0.350000X-0.450000X0.350000X-0.450000X0.350000X0.450000X-0.350000X0.450000X0*%
%ADD13RoundRect,0.250000X0.337500X0.475000X-0.337500X0.475000X-0.337500X-0.475000X0.337500X-0.475000X0*%
%ADD14R,0.300000X1.400000*%
%ADD15RoundRect,0.250000X0.475000X-0.337500X0.475000X0.337500X-0.475000X0.337500X-0.475000X-0.337500X0*%
%ADD16R,1.900000X1.100000*%
%ADD17R,2.300000X2.500000*%
%ADD18RoundRect,0.250000X-0.450000X0.325000X-0.450000X-0.325000X0.450000X-0.325000X0.450000X0.325000X0*%
%ADD19R,1.400000X0.300000*%
%ADD20RoundRect,0.250000X0.450000X-0.325000X0.450000X0.325000X-0.450000X0.325000X-0.450000X-0.325000X0*%
%ADD21R,1.080000X0.920000*%
%ADD22RoundRect,0.250000X0.325000X0.450000X-0.325000X0.450000X-0.325000X-0.450000X0.325000X-0.450000X0*%
%ADD23RoundRect,0.250000X-0.337500X-0.475000X0.337500X-0.475000X0.337500X0.475000X-0.337500X0.475000X0*%
%ADD24R,1.220000X1.120000*%
%ADD25R,1.200000X0.600000*%
%ADD26R,0.650000X1.500000*%
%ADD27R,1.200000X1.800000*%
%ADD28RoundRect,0.250000X0.450000X-0.350000X0.450000X0.350000X-0.450000X0.350000X-0.450000X-0.350000X0*%
%ADD29R,2.000000X5.700000*%
%ADD30R,1.475000X0.300000*%
%ADD31R,0.300000X1.475000*%
%ADD32R,1.800000X2.100000*%
%ADD33R,1.000000X1.930000*%
%ADD34R,1.000000X0.700000*%
%ADD35R,0.650000X1.528000*%
%ADD36RoundRect,0.250000X-0.475000X0.337500X-0.475000X-0.337500X0.475000X-0.337500X0.475000X0.337500X0*%
%ADD37R,2.400000X1.900000*%
%ADD38R,2.500000X2.300000*%
%ADD39R,1.050000X0.550000*%
%ADD40R,2.300000X1.800000*%
%ADD41R,0.920000X1.080000*%
%ADD42R,1.800000X1.100000*%
%ADD43R,1.075000X0.500000*%
%ADD44R,1.270000X3.430000*%
%ADD45R,3.050000X2.650000*%
%ADD46R,0.450000X1.425000*%
%ADD47R,2.947000X1.753000*%
G04 APERTURE END LIST*
D10*
X111750000Y-123960000D03*
X111750000Y-121660000D03*
D11*
X173600000Y-111000000D03*
X173600000Y-113000000D03*
D12*
X137240000Y-125750000D03*
X139240000Y-125750000D03*
D13*
X131500000Y-100385000D03*
X129425000Y-100385000D03*
D14*
X134400000Y-98150000D03*
X134900000Y-98150000D03*
X135400000Y-98150000D03*
X135900000Y-98150000D03*
X136400000Y-98150000D03*
X136400000Y-93750000D03*
X135900000Y-93750000D03*
X135400000Y-93750000D03*
X134900000Y-93750000D03*
X134400000Y-93750000D03*
X151800000Y-98400000D03*
X152300000Y-98400000D03*
X152800000Y-98400000D03*
X153300000Y-98400000D03*
X153800000Y-98400000D03*
X153800000Y-94000000D03*
X153300000Y-94000000D03*
X152800000Y-94000000D03*
X152300000Y-94000000D03*
X151800000Y-94000000D03*
D11*
X166779999Y-85720000D03*
X166779999Y-87720000D03*
D15*
X125200000Y-121062500D03*
X125200000Y-118987500D03*
D16*
X164200000Y-113450000D03*
X164200000Y-115950000D03*
D11*
X126450000Y-106687500D03*
X126450000Y-108687500D03*
D12*
X143235000Y-116560000D03*
X145235000Y-116560000D03*
D15*
X162927616Y-82957500D03*
X162927616Y-80882500D03*
D17*
X137000000Y-122260000D03*
X143200000Y-122260000D03*
D11*
X168206250Y-122810000D03*
X168206250Y-124810000D03*
D18*
X116450000Y-113700000D03*
X116450000Y-115750000D03*
D11*
X119110537Y-85235000D03*
X119110537Y-87235000D03*
D19*
X129400000Y-140750000D03*
X129400000Y-140250000D03*
X129400000Y-139750000D03*
X129400000Y-139250000D03*
X129400000Y-138750000D03*
X125000000Y-138750000D03*
X125000000Y-139250000D03*
X125000000Y-139750000D03*
X125000000Y-140250000D03*
X125000000Y-140750000D03*
D20*
X122450000Y-108625000D03*
X122450000Y-106575000D03*
D21*
X115350000Y-94530000D03*
X115350000Y-91330000D03*
D22*
X121090991Y-89385000D03*
X119040991Y-89385000D03*
D23*
X139442500Y-97210000D03*
X141517500Y-97210000D03*
D21*
X113860000Y-82950000D03*
X113860000Y-79750000D03*
D11*
X135565000Y-113870000D03*
X135565000Y-115870000D03*
D12*
X140900000Y-84850000D03*
X142900000Y-84850000D03*
D24*
X121310537Y-84335000D03*
X121310537Y-87535000D03*
D25*
X143150000Y-82550000D03*
X143150000Y-81600000D03*
X143150000Y-80650000D03*
X140650000Y-80650000D03*
X140650000Y-81600000D03*
X140650000Y-82550000D03*
D15*
X145400000Y-82887500D03*
X145400000Y-80812500D03*
D26*
X113525000Y-135500000D03*
X114525000Y-135500000D03*
D27*
X112225000Y-139400000D03*
X115825000Y-139400000D03*
D28*
X136450000Y-87200000D03*
X136450000Y-85200000D03*
D12*
X125965991Y-78685000D03*
X127965991Y-78685000D03*
D29*
X144570000Y-92800000D03*
X148870000Y-92800000D03*
D30*
X170312000Y-117512000D03*
X170312000Y-118012000D03*
X170312000Y-118512000D03*
X170312000Y-119012000D03*
X170312000Y-119512000D03*
X170312000Y-120012000D03*
X170312000Y-120512000D03*
X170312000Y-121012000D03*
X170312000Y-121512000D03*
X170312000Y-122012000D03*
X170312000Y-122512000D03*
X170312000Y-123012000D03*
D31*
X171800000Y-124500000D03*
X172300000Y-124500000D03*
X172800000Y-124500000D03*
X173300000Y-124500000D03*
X173800000Y-124500000D03*
X174300000Y-124500000D03*
X174800000Y-124500000D03*
X175300000Y-124500000D03*
X175800000Y-124500000D03*
X176300000Y-124500000D03*
X176800000Y-124500000D03*
X177300000Y-124500000D03*
D30*
X178788000Y-123012000D03*
X178788000Y-122512000D03*
X178788000Y-122012000D03*
X178788000Y-121512000D03*
X178788000Y-121012000D03*
X178788000Y-120512000D03*
X178788000Y-120012000D03*
X178788000Y-119512000D03*
X178788000Y-119012000D03*
X178788000Y-118512000D03*
X178788000Y-118012000D03*
X178788000Y-117512000D03*
D31*
X177300000Y-116024000D03*
X176800000Y-116024000D03*
X176300000Y-116024000D03*
X175800000Y-116024000D03*
X175300000Y-116024000D03*
X174800000Y-116024000D03*
X174300000Y-116024000D03*
X173800000Y-116024000D03*
X173300000Y-116024000D03*
X172800000Y-116024000D03*
X172300000Y-116024000D03*
X171800000Y-116024000D03*
D13*
X155607500Y-91250000D03*
X153532500Y-91250000D03*
D32*
X127800000Y-93835000D03*
X131700000Y-93835000D03*
D28*
X156102616Y-80845000D03*
X156102616Y-78845000D03*
X123200000Y-79035000D03*
X123200000Y-77035000D03*
D13*
X148497500Y-97850000D03*
X146422500Y-97850000D03*
X160843750Y-120760000D03*
X158768750Y-120760000D03*
X166227500Y-97780000D03*
X164152500Y-97780000D03*
D33*
X122825000Y-124725000D03*
X118425000Y-124725000D03*
D28*
X121210537Y-81035000D03*
X121210537Y-79035000D03*
D34*
X122850000Y-93835000D03*
X122850000Y-94785000D03*
X122850000Y-95735000D03*
X125048000Y-95735000D03*
X125048000Y-94785000D03*
X125048000Y-93835000D03*
D11*
X126450000Y-110525000D03*
X126450000Y-112525000D03*
D35*
X141360000Y-111079000D03*
X140090000Y-111079000D03*
X138820000Y-111079000D03*
X137550000Y-111079000D03*
X137550000Y-116501000D03*
X138820000Y-116501000D03*
X140090000Y-116501000D03*
X141360000Y-116501000D03*
D13*
X160843750Y-124860000D03*
X158768750Y-124860000D03*
D28*
X116350000Y-123725000D03*
X116350000Y-121725000D03*
D36*
X151620000Y-130210000D03*
X151620000Y-132285000D03*
D23*
X157372500Y-91260000D03*
X159447500Y-91260000D03*
D10*
X156527616Y-84570000D03*
X156527616Y-86870000D03*
D13*
X173167500Y-87850000D03*
X171092500Y-87850000D03*
D36*
X122700000Y-136562500D03*
X122700000Y-138637500D03*
D23*
X159262500Y-112900000D03*
X161337500Y-112900000D03*
D28*
X124450000Y-112525000D03*
X124450000Y-110525000D03*
D37*
X164406250Y-120810000D03*
X164406250Y-124910000D03*
D11*
X131700000Y-88435000D03*
X131700000Y-90435000D03*
D38*
X112850000Y-119325000D03*
X112850000Y-113125000D03*
D28*
X135585000Y-112030000D03*
X135585000Y-110030000D03*
D39*
X139150000Y-93460000D03*
X139150000Y-94410000D03*
X139150000Y-95360000D03*
X141750000Y-95360000D03*
X141750000Y-94410000D03*
X141750000Y-93460000D03*
D28*
X174300000Y-129100000D03*
X174300000Y-127100000D03*
D11*
X122450000Y-110525000D03*
X122450000Y-112525000D03*
D12*
X143150000Y-78600000D03*
X145150000Y-78600000D03*
D23*
X139582500Y-91310000D03*
X141657500Y-91310000D03*
D12*
X143205000Y-112970000D03*
X145205000Y-112970000D03*
D13*
X131500000Y-98285000D03*
X129425000Y-98285000D03*
D36*
X118450000Y-108050000D03*
X118450000Y-110125000D03*
D10*
X138700000Y-84700000D03*
X138700000Y-87000000D03*
D11*
X154302616Y-85070000D03*
X154302616Y-87070000D03*
D40*
X135400000Y-83050000D03*
X135400000Y-80150000D03*
D12*
X160742616Y-78570000D03*
X162742616Y-78570000D03*
X158732616Y-84750000D03*
X160732616Y-84750000D03*
D21*
X129300000Y-113250000D03*
X129300000Y-110050000D03*
D13*
X148507500Y-99940000D03*
X146432500Y-99940000D03*
D41*
X127500000Y-122350000D03*
X130700000Y-122350000D03*
D13*
X137837500Y-91340000D03*
X135762500Y-91340000D03*
D22*
X138475000Y-89350000D03*
X136425000Y-89350000D03*
X143075000Y-125770000D03*
X141025000Y-125770000D03*
D11*
X175600000Y-111000000D03*
X175600000Y-113000000D03*
D42*
X154520000Y-129110000D03*
X162720000Y-129110000D03*
X154520000Y-133610000D03*
X162720000Y-133610000D03*
D23*
X157002500Y-97340000D03*
X159077500Y-97340000D03*
D36*
X128215991Y-80997500D03*
X128215991Y-83072500D03*
D23*
X122875000Y-91335000D03*
X124950000Y-91335000D03*
D15*
X137675000Y-109090000D03*
X137675000Y-107015000D03*
D36*
X124450000Y-106650000D03*
X124450000Y-108725000D03*
D11*
X149050000Y-85900000D03*
X149050000Y-87900000D03*
D14*
X169550000Y-94310000D03*
X170050000Y-94310000D03*
X170550000Y-94310000D03*
X171050000Y-94310000D03*
X171550000Y-94310000D03*
X171550000Y-89910000D03*
X171050000Y-89910000D03*
X170550000Y-89910000D03*
X170050000Y-89910000D03*
X169550000Y-89910000D03*
D28*
X116450000Y-119925000D03*
X116450000Y-117925000D03*
D23*
X122425000Y-98335000D03*
X124500000Y-98335000D03*
D36*
X113930000Y-121782500D03*
X113930000Y-123857500D03*
D22*
X156352616Y-89170000D03*
X154302616Y-89170000D03*
D28*
X171600000Y-113000000D03*
X171600000Y-111000000D03*
D39*
X156910000Y-93600000D03*
X156910000Y-94550000D03*
X156910000Y-95500000D03*
X159510000Y-95500000D03*
X159510000Y-94550000D03*
X159510000Y-93600000D03*
D12*
X140935000Y-118800000D03*
X142935000Y-118800000D03*
D15*
X118450000Y-113962500D03*
X118450000Y-111887500D03*
D29*
X162350000Y-92690000D03*
X166650000Y-92690000D03*
D25*
X125910537Y-82685000D03*
X125910537Y-81735000D03*
X125910537Y-80785000D03*
X123410537Y-80785000D03*
X123410537Y-81735000D03*
X123410537Y-82685000D03*
D43*
X128350000Y-105950000D03*
X130650000Y-105950000D03*
D25*
X160727616Y-82495000D03*
X160727616Y-81545000D03*
X160727616Y-80595000D03*
X158227616Y-80595000D03*
X158227616Y-81545000D03*
X158227616Y-82495000D03*
D44*
X177230000Y-135770000D03*
X174690000Y-132850000D03*
X172150000Y-135770000D03*
X169610000Y-132850000D03*
X167070000Y-135770000D03*
D20*
X120450000Y-108650000D03*
X120450000Y-106600000D03*
D45*
X127375000Y-125650000D03*
X127375000Y-131350000D03*
D23*
X159262500Y-114900000D03*
X161337500Y-114900000D03*
D40*
X153202616Y-82995000D03*
X153202616Y-80095000D03*
X118310537Y-83135000D03*
X118310537Y-80235000D03*
D43*
X138690000Y-127940000D03*
X140990000Y-127940000D03*
D28*
X118450000Y-121725000D03*
X118450000Y-119725000D03*
D23*
X140097500Y-108980000D03*
X142172500Y-108980000D03*
D46*
X123400000Y-115425000D03*
X122750000Y-115425000D03*
X122100000Y-115425000D03*
X121450000Y-115425000D03*
X120800000Y-115425000D03*
X120150000Y-115425000D03*
X120150000Y-119849000D03*
X120800000Y-119849000D03*
X121450000Y-119849000D03*
X122100000Y-119849000D03*
X122750000Y-119849000D03*
X123400000Y-119849000D03*
D47*
X121775000Y-117637000D03*
D28*
X118400000Y-117725000D03*
X118400000Y-115725000D03*
D11*
X120450000Y-110525000D03*
X120450000Y-112525000D03*
D13*
X166227500Y-99880000D03*
X164152500Y-99880000D03*
D28*
X138400000Y-80850000D03*
X138400000Y-78850000D03*
M02*
