%TF.GenerationSoftware,KiCad,Pcbnew,9.0.7*%
%TF.CreationDate,2026-05-02T21:02:55-03:00*%
%TF.ProjectId,EPS_KiCad_Design,4550535f-4b69-4436-9164-5f4465736967,rev?*%
%TF.SameCoordinates,Original*%
%TF.FileFunction,Soldermask,Bot*%
%TF.FilePolarity,Negative*%
%FSLAX46Y46*%
G04 Gerber Fmt 4.6, Leading zero omitted, Abs format (unit mm)*
G04 Created by KiCad (PCBNEW 9.0.7) date 2026-05-02 21:02:55*
%MOMM*%
%LPD*%
G01*
G04 APERTURE LIST*
G04 Aperture macros list*
%AMRoundRect*
0 Rectangle with rounded corners*
0 $1 Rounding radius*
0 $2 $3 $4 $5 $6 $7 $8 $9 X,Y pos of 4 corners*
0 Add a 4 corners polygon primitive as box body*
4,1,4,$2,$3,$4,$5,$6,$7,$8,$9,$2,$3,0*
0 Add four circle primitives for the rounded corners*
1,1,$1+$1,$2,$3*
1,1,$1+$1,$4,$5*
1,1,$1+$1,$6,$7*
1,1,$1+$1,$8,$9*
0 Add four rect primitives between the rounded corners*
20,1,$1+$1,$2,$3,$4,$5,0*
20,1,$1+$1,$4,$5,$6,$7,0*
20,1,$1+$1,$6,$7,$8,$9,0*
20,1,$1+$1,$8,$9,$2,$3,0*%
G04 Aperture macros list end*
%ADD10RoundRect,0.250000X-0.475000X0.337500X-0.475000X-0.337500X0.475000X-0.337500X0.475000X0.337500X0*%
%ADD11C,1.300000*%
%ADD12R,1.300000X1.300000*%
%ADD13C,0.800000*%
%ADD14C,6.400000*%
%ADD15C,1.700000*%
%ADD16R,1.700000X1.700000*%
%ADD17RoundRect,0.250000X0.337500X0.475000X-0.337500X0.475000X-0.337500X-0.475000X0.337500X-0.475000X0*%
%ADD18RoundRect,0.250000X-0.337500X-0.475000X0.337500X-0.475000X0.337500X0.475000X-0.337500X0.475000X0*%
%ADD19R,0.650000X0.700000*%
G04 APERTURE END LIST*
D10*
X184970000Y-65057500D03*
X184970000Y-62982500D03*
X104950000Y-65867500D03*
X104950000Y-63792500D03*
X105000000Y-132987500D03*
X105000000Y-130912500D03*
D11*
X107530000Y-124710000D03*
X107530000Y-126710000D03*
X107530000Y-128710000D03*
D12*
X107530000Y-130710000D03*
X170030000Y-107360000D03*
D11*
X172530000Y-104160000D03*
X175030000Y-107360000D03*
D13*
X102600000Y-57900000D03*
X103302944Y-56202944D03*
X103302944Y-59597056D03*
X105000000Y-55500000D03*
D14*
X105000000Y-57900000D03*
D13*
X105000000Y-60300000D03*
X106697056Y-56202944D03*
X106697056Y-59597056D03*
X107400000Y-57900000D03*
D12*
X110650000Y-93250000D03*
D11*
X110650000Y-91250000D03*
X110650000Y-89250000D03*
X110650000Y-87250000D03*
D13*
X182600000Y-137900000D03*
X183302944Y-136202944D03*
X183302944Y-139597056D03*
X185000000Y-135500000D03*
D14*
X185000000Y-137900000D03*
D13*
X185000000Y-140300000D03*
X186697056Y-136202944D03*
X186697056Y-139597056D03*
X187400000Y-137900000D03*
D12*
X110675000Y-105750000D03*
D11*
X110675000Y-103750000D03*
X110675000Y-101750000D03*
X110675000Y-99750000D03*
D15*
X120860000Y-61040000D03*
D16*
X120860000Y-58500000D03*
D15*
X123400000Y-61040000D03*
X123400000Y-58500000D03*
X125940000Y-61040000D03*
X125940000Y-58500000D03*
X128480000Y-61040000D03*
X128480000Y-58500000D03*
X131020000Y-61040000D03*
X131020000Y-58500000D03*
X133560000Y-61040000D03*
X133560000Y-58500000D03*
X136100000Y-61040000D03*
X136100000Y-58500000D03*
X138640000Y-61040000D03*
X138640000Y-58500000D03*
X141180000Y-61040000D03*
X141180000Y-58500000D03*
X143720000Y-61040000D03*
X143720000Y-58500000D03*
X146260000Y-61040000D03*
X146260000Y-58500000D03*
X148800000Y-61040000D03*
X148800000Y-58500000D03*
X151340000Y-61040000D03*
X151340000Y-58500000D03*
X153880000Y-61040000D03*
X153880000Y-58500000D03*
X156420000Y-61040000D03*
X156420000Y-58500000D03*
X158960000Y-61040000D03*
X158960000Y-58500000D03*
X161500000Y-61040000D03*
X161500000Y-58500000D03*
X164040000Y-61040000D03*
X164040000Y-58500000D03*
X166580000Y-61040000D03*
X166580000Y-58500000D03*
X169120000Y-61040000D03*
X169120000Y-58500000D03*
D12*
X142950000Y-132430000D03*
D11*
X140950000Y-132430000D03*
X138950000Y-132430000D03*
X136950000Y-132430000D03*
D13*
X182600000Y-57900000D03*
X183302944Y-56202944D03*
X183302944Y-59597056D03*
X185000000Y-55500000D03*
D14*
X185000000Y-57900000D03*
D13*
X185000000Y-60300000D03*
X186697056Y-56202944D03*
X186697056Y-59597056D03*
X187400000Y-57900000D03*
D12*
X107675000Y-118100000D03*
D11*
X107675000Y-116100000D03*
X107675000Y-114100000D03*
X107675000Y-112100000D03*
D13*
X102600000Y-137900000D03*
X103302944Y-136202944D03*
X103302944Y-139597056D03*
X105000000Y-135500000D03*
D14*
X105000000Y-137900000D03*
D13*
X105000000Y-140300000D03*
X106697056Y-136202944D03*
X106697056Y-139597056D03*
X107400000Y-137900000D03*
D12*
X107625000Y-80950000D03*
D11*
X107625000Y-78950000D03*
X107625000Y-76950000D03*
X107625000Y-74950000D03*
D17*
X170577500Y-122880000D03*
X168502500Y-122880000D03*
D10*
X185000000Y-131112500D03*
X185000000Y-133187500D03*
D18*
X178225000Y-128100000D03*
X180300000Y-128100000D03*
D17*
X170577500Y-127080000D03*
X168502500Y-127080000D03*
X170237500Y-114100000D03*
X168162500Y-114100000D03*
D18*
X178762500Y-115600000D03*
X180837500Y-115600000D03*
X178762500Y-113500000D03*
X180837500Y-113500000D03*
X178225000Y-126000000D03*
X180300000Y-126000000D03*
D17*
X170577500Y-124980000D03*
X168502500Y-124980000D03*
D19*
X168802500Y-128850000D03*
X170152500Y-128850000D03*
D17*
X170237500Y-116200000D03*
X168162500Y-116200000D03*
M02*
