M48
; DRILL file {KiCad 9.0.7} date 2026-05-02T21:13:32-0300
; FORMAT={-:-/ absolute / metric / decimal}
; #@! TF.CreationDate,2026-05-02T21:13:32-03:00
; #@! TF.GenerationSoftware,Kicad,Pcbnew,9.0.7
; #@! TF.FileFunction,Plated,1,4,PTH
FMAT,2
METRIC
; #@! TA.AperFunction,Plated,PTH,ViaDrill
T1C0.300
; #@! TA.AperFunction,Plated,PTH,ComponentDrill
T2C0.500
; #@! TA.AperFunction,Plated,PTH,ComponentDrill
T3C0.800
; #@! TA.AperFunction,Plated,PTH,ComponentDrill
T4C1.000
; #@! TA.AperFunction,Plated,PTH,ComponentDrill
T5C3.200
%
G90
G05
T1
X101.0Y-54.0
X101.0Y-64.0
X101.0Y-74.0
X101.0Y-84.0
X101.0Y-114.0
X101.0Y-124.0
X101.0Y-134.0
X102.0Y-141.7
X104.93Y-68.79
X110.975Y-139.4
X111.675Y-125.45
X111.675Y-126.35
X112.0Y-54.0
X112.0Y-141.7
X112.575Y-125.9
X112.65Y-110.125
X112.65Y-111.125
X113.475Y-125.45
X113.475Y-126.35
X113.525Y-134.15
X113.55Y-110.625
X114.375Y-125.9
X114.425Y-134.15
X114.55Y-110.125
X114.55Y-111.125
X115.45Y-110.625
X116.45Y-110.125
X116.45Y-111.125
X117.025Y-139.425
X117.5Y-77.5
X117.5Y-78.5
X118.5Y-78.0
X118.7Y-122.9
X119.15Y-116.375
X119.5Y-77.5
X119.5Y-78.5
X119.65Y-117.125
X119.798Y-122.894
X119.815Y-139.396
X119.925Y-129.22
X120.1Y-140.25
X120.374Y-141.107
X120.7Y-117.125
X120.7Y-118.125
X120.875Y-128.3
X121.25Y-140.9
X121.3Y-74.95
X121.4Y-138.6
X121.677Y-141.692
X121.8Y-117.125
X121.8Y-118.125
X122.0Y-54.0
X122.1Y-75.6
X122.9Y-117.125
X122.9Y-118.125
X123.55Y-85.775
X123.55Y-86.775
X123.55Y-88.575
X123.55Y-89.575
X123.9Y-94.55
X124.059Y-95.628
X124.45Y-86.275
X124.45Y-89.075
X124.45Y-109.625
X124.479Y-79.206
X124.656Y-78.323
X125.35Y-85.775
X125.35Y-86.775
X125.35Y-88.575
X125.35Y-89.575
X125.909Y-76.181
X125.943Y-77.24
X126.05Y-97.475
X126.05Y-98.475
X126.29Y-139.73
X126.562Y-138.081
X126.563Y-140.587
X126.95Y-97.975
X127.236Y-137.486
X127.278Y-138.627
X127.55Y-85.775
X127.55Y-86.775
X127.55Y-88.575
X127.55Y-89.575
X127.85Y-97.475
X127.85Y-98.475
X127.967Y-138.047
X128.45Y-86.275
X128.45Y-89.075
X129.35Y-85.775
X129.35Y-86.775
X129.35Y-88.575
X129.35Y-89.575
X129.45Y-78.2
X129.5Y-80.0
X129.5Y-81.5
X129.85Y-97.0
X130.2Y-121.075
X130.45Y-78.2
X130.5Y-80.0
X130.5Y-81.5
X130.675Y-120.175
X131.0Y-97.0
X131.05Y-121.075
X131.13Y-139.35
X131.774Y-138.721
X132.0Y-54.0
X132.0Y-141.7
X132.05Y-105.6
X132.05Y-106.5
X132.95Y-106.05
X133.05Y-114.49
X133.33Y-113.56
X133.673Y-140.577
X134.16Y-139.82
X134.637Y-77.265
X134.637Y-78.265
X134.65Y-99.618
X134.693Y-100.517
X135.637Y-77.765
X135.674Y-137.412
X135.69Y-100.82
X136.501Y-95.2
X136.57Y-137.5
X136.637Y-77.265
X136.637Y-78.265
X136.75Y-101.014
X137.277Y-100.285
X137.35Y-94.35
X138.07Y-99.82
X138.815Y-117.87
X138.862Y-118.929
X138.975Y-106.55
X139.665Y-87.309
X139.665Y-89.109
X140.165Y-88.209
X140.534Y-83.4
X140.665Y-87.309
X140.674Y-94.317
X140.79Y-95.21
X140.975Y-106.55
X140.975Y-130.55
X141.551Y-83.7
X141.665Y-87.609
X141.665Y-88.609
X141.882Y-79.999
X142.565Y-88.109
X142.94Y-80.05
X142.965Y-96.709
X142.965Y-97.709
X142.975Y-106.55
X142.975Y-110.55
X142.975Y-128.55
X142.975Y-130.55
X143.45Y-86.3
X143.465Y-87.35
X143.465Y-88.609
X143.58Y-114.48
X143.865Y-97.209
X144.748Y-114.502
X144.765Y-96.709
X144.765Y-97.709
X144.865Y-87.609
X144.865Y-88.609
X144.975Y-106.55
X144.975Y-108.55
X144.975Y-110.55
X144.975Y-118.55
X144.975Y-120.55
X144.975Y-122.55
X144.975Y-124.55
X144.975Y-126.55
X144.975Y-128.55
X144.975Y-130.55
X144.975Y-132.55
X145.765Y-88.109
X146.57Y-78.31
X146.57Y-79.85
X146.6Y-81.16
X146.665Y-87.609
X146.665Y-88.609
X146.925Y-106.545
X146.975Y-108.55
X146.975Y-110.55
X146.975Y-112.55
X146.975Y-114.55
X146.975Y-118.55
X146.975Y-120.55
X146.975Y-122.55
X146.975Y-124.55
X146.975Y-126.55
X146.975Y-128.55
X146.975Y-130.55
X146.975Y-132.55
X147.25Y-95.1
X147.68Y-79.85
X147.684Y-78.31
X147.72Y-81.18
X148.05Y-95.75
X152.5Y-77.25
X152.5Y-78.3
X152.523Y-99.645
X152.995Y-96.052
X153.05Y-96.95
X153.35Y-100.0
X153.5Y-77.9
X153.893Y-95.988
X154.5Y-77.25
X154.55Y-78.4
X157.0Y-54.0
X157.0Y-141.7
X157.306Y-120.76
X157.406Y-124.86
X157.5Y-87.3
X157.5Y-89.1
X158.0Y-88.2
X158.05Y-112.8
X158.05Y-114.9
X158.342Y-94.303
X158.5Y-87.3
X158.51Y-95.25
X159.5Y-87.6
X159.5Y-88.6
X160.4Y-88.1
X160.8Y-96.8
X160.8Y-97.8
X160.95Y-86.15
X161.3Y-87.3
X161.3Y-88.6
X161.7Y-97.3
X162.5Y-87.6
X162.5Y-88.6
X162.6Y-96.8
X162.6Y-97.8
X162.72Y-134.66
X163.4Y-88.1
X164.2Y-78.3
X164.2Y-79.8
X164.2Y-81.3
X164.3Y-87.6
X164.3Y-88.6
X164.9Y-95.35
X165.2Y-78.3
X165.2Y-79.8
X165.2Y-81.3
X165.75Y-95.85
X167.0Y-54.0
X167.0Y-141.7
X167.34Y-127.09
X168.85Y-95.25
X168.955Y-116.845
X169.464Y-95.914
X169.61Y-130.34
X169.95Y-117.15
X169.96Y-107.2
X170.503Y-95.953
X170.79Y-128.96
X170.967Y-96.724
X171.628Y-128.631
X171.674Y-131.747
X171.733Y-121.898
X171.8Y-121.0
X171.83Y-126.06
X171.85Y-96.9
X171.95Y-98.25
X172.0Y-117.7
X172.175Y-132.495
X172.23Y-126.905
X172.32Y-86.28
X172.54Y-119.921
X172.683Y-127.931
X172.895Y-126.298
X172.95Y-117.7
X173.431Y-120.05
X173.571Y-118.352
X173.585Y-121.885
X173.738Y-122.771
X174.15Y-114.206
X175.22Y-130.37
X175.45Y-114.21
X175.55Y-122.061
X176.119Y-130.344
X176.654Y-126.089
X176.95Y-122.811
X177.0Y-54.0
X177.0Y-141.7
X177.062Y-121.757
X177.1Y-120.8
X177.19Y-111.995
X177.19Y-118.42
X177.277Y-112.891
X177.363Y-117.537
X177.537Y-125.913
X178.3Y-124.15
X179.36Y-124.06
X180.086Y-112.948
X180.13Y-112.049
X180.253Y-110.844
X180.947Y-117.158
X181.141Y-110.7
X181.845Y-117.097
X181.89Y-119.43
X181.9Y-118.53
X184.617Y-119.097
X184.62Y-77.59
X184.683Y-120.155
X184.98Y-68.74
X185.09Y-127.98
X185.513Y-78.162
X185.54Y-117.156
X185.7Y-118.203
X186.61Y-78.17
X187.0Y-141.7
X187.658Y-78.331
X189.0Y-54.0
X189.0Y-64.0
X189.0Y-74.0
X189.0Y-84.0
X189.0Y-94.0
X189.0Y-104.0
X189.0Y-114.0
X189.0Y-124.0
X189.0Y-134.0
T2
X102.6Y-57.9
X102.6Y-137.9
X103.303Y-56.203
X103.303Y-59.597
X103.303Y-136.203
X103.303Y-139.597
X105.0Y-55.5
X105.0Y-60.3
X105.0Y-135.5
X105.0Y-140.3
X106.697Y-56.203
X106.697Y-59.597
X106.697Y-136.203
X106.697Y-139.597
X107.4Y-57.9
X107.4Y-137.9
X182.6Y-57.9
X182.6Y-137.9
X183.303Y-56.203
X183.303Y-59.597
X183.303Y-136.203
X183.303Y-139.597
X185.0Y-55.5
X185.0Y-60.3
X185.0Y-135.5
X185.0Y-140.3
X186.697Y-56.203
X186.697Y-59.597
X186.697Y-136.203
X186.697Y-139.597
X187.4Y-57.9
X187.4Y-137.9
T3
X107.53Y-124.71
X107.53Y-126.71
X107.53Y-128.71
X107.53Y-130.71
X107.625Y-74.95
X107.625Y-76.95
X107.625Y-78.95
X107.625Y-80.95
X107.675Y-112.1
X107.675Y-114.1
X107.675Y-116.1
X107.675Y-118.1
X110.65Y-87.25
X110.65Y-89.25
X110.65Y-91.25
X110.65Y-93.25
X110.675Y-99.75
X110.675Y-101.75
X110.675Y-103.75
X110.675Y-105.75
X136.95Y-132.43
X138.95Y-132.43
X140.95Y-132.43
X142.95Y-132.43
X169.96Y-105.77
X172.46Y-102.57
X174.96Y-105.77
T4
X120.86Y-58.5
X120.86Y-61.04
X123.4Y-58.5
X123.4Y-61.04
X125.94Y-58.5
X125.94Y-61.04
X128.48Y-58.5
X128.48Y-61.04
X131.02Y-58.5
X131.02Y-61.04
X133.56Y-58.5
X133.56Y-61.04
X136.1Y-58.5
X136.1Y-61.04
X138.64Y-58.5
X138.64Y-61.04
X141.18Y-58.5
X141.18Y-61.04
X143.72Y-58.5
X143.72Y-61.04
X146.26Y-58.5
X146.26Y-61.04
X148.8Y-58.5
X148.8Y-61.04
X151.34Y-58.5
X151.34Y-61.04
X153.88Y-58.5
X153.88Y-61.04
X156.42Y-58.5
X156.42Y-61.04
X158.96Y-58.5
X158.96Y-61.04
X161.5Y-58.5
X161.5Y-61.04
X164.04Y-58.5
X164.04Y-61.04
X166.58Y-58.5
X166.58Y-61.04
X169.12Y-58.5
X169.12Y-61.04
T5
X105.0Y-57.9
X105.0Y-137.9
X185.0Y-57.9
X185.0Y-137.9
M30
